<?xml version="1.0" standalone="no"?>
<!DOCTYPE svg PUBLIC "-//W3C//DTD SVG 20010904//EN"
 "http://www.w3.org/TR/2001/REC-SVG-20010904/DTD/svg10.dtd">
<svg version="1.0" xmlns="http://www.w3.org/2000/svg"
 width="700.000000pt" height="700.000000pt" viewBox="0 0 700.000000 700.000000"
 preserveAspectRatio="xMidYMid meet">
<metadata>
Created by potrace 1.14, written by Peter Selinger 2001-2017
</metadata>
<g transform="translate(0.000000,700.000000) scale(0.100000,-0.100000)"
fill="#000000" stroke="none">
<path d="M3249 6996 c-2 -2 -43 -6 -91 -10 -74 -6 -351 -46 -413 -60 -22 -5
-140 -34 -167 -41 -10 -3 -26 -7 -35 -9 -68 -17 -240 -75 -354 -121 -547 -219
-1004 -555 -1398 -1028 -194 -233 -394 -566 -508 -842 -43 -105 -87 -217 -89
-225 0 -3 -3 -12 -7 -20 -57 -148 -145 -539 -163 -725 -2 -22 -7 -76 -11 -120
-10 -100 -10 -496 0 -590 4 -38 10 -99 13 -135 5 -53 40 -256 59 -346 32 -146
124 -442 165 -531 11 -24 20 -45 20 -48 0 -11 41 -98 107 -230 345 -688 909
-1244 1598 -1575 77 -37 167 -77 200 -90 33 -12 74 -28 90 -35 100 -43 470
-145 575 -159 25 -3 55 -8 68 -11 43 -8 167 -24 248 -32 155 -15 660 -7 717
12 6 2 35 6 62 9 189 21 568 115 710 177 11 5 56 22 100 39 100 39 304 138
410 198 604 345 1102 877 1403 1497 65 133 71 148 141 323 19 48 81 235 86
262 2 8 13 49 24 90 11 41 23 93 27 115 3 22 7 42 9 45 3 5 17 81 40 221 3 14
7 52 11 85 3 32 8 75 10 94 9 61 12 511 4 595 -12 125 -21 202 -25 223 -2 11
-7 42 -11 69 -8 57 -8 55 -29 158 -22 105 -21 98 -45 190 -22 84 -104 336
-119 370 -6 11 -29 65 -52 120 -165 387 -419 763 -722 1065 -68 69 -139 139
-158 155 -492 436 -1068 714 -1705 825 -63 11 -143 22 -177 26 -34 3 -73 8
-87 10 -28 6 -526 15 -531 10z"/>
</g>
</svg>
